<?xml version="1.0" standalone="no"?>
<!DOCTYPE svg PUBLIC "-//W3C//DTD SVG 20010904//EN"
 "http://www.w3.org/TR/2001/REC-SVG-20010904/DTD/svg10.dtd">
<svg version="1.0" xmlns="http://www.w3.org/2000/svg"
 width="740.000000pt" height="740.000000pt" viewBox="0 0 740.000000 740.000000"
 preserveAspectRatio="xMidYMid meet">
<metadata>
Created by potrace 1.11, written by Peter Selinger 2001-2013
</metadata>
<g transform="translate(0.000000,740.000000) scale(0.100000,-0.100000)"
fill="#000000" stroke="none">
<path d="M0 5925 l0 -1475 205 0 204 0 3 453 3 452 29 62 c35 76 104 144 184
181 l57 27 453 3 452 3 0 489 0 489 -50 22 c-160 69 -200 276 -77 397 123 120
320 84 393 -72 31 -67 31 -135 0 -201 -29 -61 -66 -97 -128 -125 l-48 -21 0
-489 0 -490 1143 -2 1142 -3 61 -28 c73 -34 142 -101 181 -177 l28 -55 3 -457
3 -458 488 0 488 0 18 46 c73 193 351 206 446 22 62 -121 8 -277 -115 -334
-126 -59 -283 5 -332 133 l-17 43 -488 0 -489 0 0 -645 0 -645 1264 0 1263 0
17 44 c21 55 100 131 152 145 172 48 339 -84 321 -253 -16 -161 -165 -260
-320 -214 -54 16 -134 92 -152 143 l-13 40 -1266 3 -1265 2 -3 -457 c-3 -450
-3 -459 -25 -506 -31 -67 -115 -152 -182 -184 l-56 -28 -1147 -3 -1148 -2 0
-490 0 -489 48 -21 c62 -28 99 -64 128 -125 75 -158 -45 -345 -221 -345 -68 0
-117 22 -170 75 -71 71 -92 151 -63 249 15 52 100 138 148 152 l35 10 3 491 2
492 -457 3 -458 3 -55 28 c-76 39 -143 108 -177 181 l-28 61 -3 1143 -2 1142
-205 0 -205 0 0 -2180 0 -2180 3700 0 3700 0 0 3700 0 3700 -3700 0 -3700 0 0
-1475z"/>
<path d="M1584 7009 c-42 -12 -100 -77 -108 -122 -15 -82 38 -164 122 -186
110 -30 221 81 191 191 -13 52 -63 105 -107 118 -43 12 -56 11 -98 -1z"/>
<path d="M707 5536 c-101 -27 -185 -117 -206 -219 -8 -36 -11 -524 -9 -1632
l3 -1580 24 -52 c29 -65 91 -124 157 -149 47 -18 99 -19 1649 -19 1550 0 1602
1 1649 19 66 25 128 84 157 149 l24 52 0 1605 c0 1555 -1 1607 -19 1654 -25
66 -84 128 -149 157 l-52 24 -1590 2 c-1281 1 -1599 -1 -1638 -11z"/>
<path d="M5419 4560 c-46 -13 -78 -41 -99 -84 -25 -54 -25 -89 1 -142 72 -151
299 -96 299 71 0 66 -29 112 -90 143 -46 23 -68 26 -111 12z"/>
<path d="M6965 3179 c-43 -12 -93 -64 -105 -110 -15 -55 -3 -106 37 -149 98
-109 275 -42 275 105 0 71 -35 120 -105 150 -40 17 -57 17 -102 4z"/>
<path d="M1586 725 c-115 -41 -149 -168 -69 -256 136 -151 367 46 242 205 -41
52 -112 73 -173 51z"/>
</g>
</svg>
